<svg xmlns="http://www.w3.org/2000/svg" viewBox="0 0 200 80" width="200" height="80">
  <rect width="200" height="80" rx="12" fill="#000000"/>
  <g fill="white">
    <!-- Apple logo -->
    <path d="M 55 32 c -1 2 -2.5 4 -5 4 -0.3 -2 0.7 -4 1.8 -5.3 C 53 29 55 28 56.7 27.9 C 57 30 56 31.7 55 32 z M 56.8 35.3 c -2.8 -0.2 -5.2 1.6 -6.5 1.6 -1.4 0 -3.4 -1.5 -5.6 -1.5 -2.9 0 -5.5 1.7 -7 4.3 -3 5.2 -0.8 12.9 2.1 17.1 1.4 2.1 3.1 4.4 5.4 4.3 2.1 -0.1 2.9 -1.4 5.5 -1.4 2.6 0 3.3 1.4 5.5 1.3 2.3 -0.05 3.7 -2.1 5.2 -4.2 1.6 -2.4 2.3 -4.7 2.3 -4.8 -0.05 -0.05 -4.5 -1.7 -4.5 -6.8 -0.05 -4.3 3.5 -6.3 3.7 -6.4 -2 -2.9 -5.1 -3.3 -6.2 -3.3 z"/>
    <text x="115" y="54" fill="white" font-family="-apple-system, Arial, Helvetica, sans-serif" font-weight="600" font-size="30" letter-spacing="-0.5">Pay</text>
  </g>
</svg>
