<svg xmlns="http://www.w3.org/2000/svg" viewBox="0 0 200 80" width="200" height="80">
  <rect width="200" height="80" rx="12" fill="#ffffff" stroke="#E5E7EB" stroke-width="1"/>
  <g>
    <!-- Google G -->
    <path d="M 50 40 c 0 -10 8 -18 18 -18 5 0 9 2 12 5 l -4 4 c -2 -2 -5 -3 -8 -3 -7 0 -12 5 -12 12 s 5 12 12 12 c 6 0 10 -4 11 -9 h -11 v -5 h 16 c 0 1 0 2 0 3 0 9 -6 16 -16 16 -10 0 -18 -8 -18 -17 z" fill="#4285F4" transform="translate(-30 -5) scale(1.2)"/>
    <!-- Pay text -->
    <text x="115" y="52" fill="#5F6368" font-family="Arial, Helvetica, sans-serif" font-weight="500" font-size="28" letter-spacing="-0.5">Pay</text>
  </g>
</svg>
